#!OML:ASF F:\VICON\USERDATA\INSTALL\rory3\rory3.ASF
:FULLY-SPECIFIED
:DEGREES
72
root 0.2174784468407859 17.79833119457578 33.60961807528217 -2.523813377259576 1.2469670631985728 -1.6924440277244588
lfemur 8.616257096763608 -4.925152839172008 -20.121535136992165
ltibia 42.686706870212404
lfoot 8.296637822024106 -13.222296579891818
ltoes -9.212353298381238
rfemur -23.431124369266517 4.83722901748441 25.51756899641899
rtibia 31.17168046218538
rfoot -4.190210329821137 -3.6433540288146906
rtoes 8.17442259567283
lowerback 9.50262752591674 -1.3086119330108543 -0.3286288918210687
upperback 0.39007344624122686 -1.6463521154182859 2.8363982091282574
thorax -4.803666617034018 -0.7808953492324302 3.290207785365578
lowerneck -16.327567587134638 -2.450302386785948 -2.4305399244392687
upperneck 21.00317362325284 -2.9970641883405396 0.6032714809002611
head 9.32590452256423 -1.5091287150693207 0.30087284075100124
lclavicle -1.5030503787480164e-15 1.321323084575885e-15
lhumerus -22.518109476470855 -2.504856918808051 83.95998264952672
lradius 30.643749286478812
lwrist 7.217323019445141
lhand -28.237332340408017 22.576937598345037
lfingers 7.12502
lthumb -1.6150429937244073 52.53654653854596
rclavicle -1.5030503787480164e-15 1.321323084575885e-15
rhumerus -33.88712633174112 -27.558741482351195 -73.47091719388979
rradius 20.256365365862244
rwrist 13.383722165579737
rhand -17.483291784872574 22.4439251375207
rfingers 7.12502
rthumb 8.768940994546087 -7.356165125614424
73
root 0.1273855793672169 17.896061478886953 32.40474901446437 -2.9237681096428707 0.9051427599075259 -3.2978743077196846
lfemur 2.237787910011866 -4.061996255843713 -17.91854255413378
ltibia 50.84032513596871
lfoot 12.041915627852212 -15.273131360742136
ltoes -4.149014749375543
rfemur -21.104649934209768 5.00894954003941 27.183445360408115
rtibia 30.2610790965711
rfoot -6.545074318523169 -4.578386892559374
rtoes 9.359019586200608
lowerback 9.605343423579422 -1.2235577986125858 0.6191361683500562
upperback 0.42303451251893887 -1.4102755086209187 3.003489620746799
thorax -4.890259822881045 -0.6819543125413667 2.6840441321102406
lowerneck -16.176669572472868 -2.529029944905149 -2.4072128427460684
upperneck 20.9818580618475 -3.131245750840636 0.6724042292496095
head 9.283024434834354 -1.5616230744800852 0.29201227761836446
lclavicle -2.5852976635696564e-15 3.249054518916237e-16
lhumerus -24.17355952162731 -2.7714912921690376 84.33928511423679
lradius 29.545724294559903
lwrist 6.001117116840894
lhand -27.45892809873878 23.036745767568476
lfingers 7.12502
lthumb -0.8633226290224394 53.000705085916046
rclavicle -2.5852976635696564e-15 3.249054518916237e-16
rhumerus -33.5150829475388 -26.762584688259047 -74.53316216537674
rradius 20.40690597180862
rwrist 12.164208522552443
rhand -17.294691521602186 22.8696333794739
rfingers 7.12502
rthumb 8.950944574719365 -6.920690911035463
74
root 0.08553119921262792 17.995460968630177 33.569615892803704 -3.132397416973919 0.7310818363607772 -4.13697801346743
lfemur -2.681136181191662 -2.649359964016486 -15.629759593806643
ltibia 59.10455323537967
lfoot 11.709742840351126 -14.10129022489001
ltoes -1.3476503620002291
rfemur -17.130519940774423 5.42300512637903 29.146741435362088
rtibia 30.352387372442266
rfoot -8.212022561805977 -5.125738802411094
rtoes 9.806752692407878
lowerback 9.72224298803817 -0.8450356873006916 1.7233673355147707
upperback 0.5329158017271065 -0.7891415780038207 3.100480970724816
thorax -4.870487544995169 -0.3966039673284486 2.2888942925597737
lowerneck -15.998666419019882 -2.6182220613482547 -2.3543339846410642
upperneck 20.994617076497576 -3.284140453715883 0.95859358265501
head 9.275003575417616 -1.6179533733554816 0.34639171337324415
lclavicle -1.877286385054456e-15 9.769626306520548e-16
lhumerus -24.935995474922237 -2.481691524774056 84.71844456948581
lradius 28.715386966768364
lwrist 4.858566773874002
lhand -26.89355998679853 23.502357605193477
lfingers 7.12502
lthumb -0.3173263334317758 53.4708846471651
rclavicle -1.877286385054456e-15 9.769626306520548e-16
rhumerus -32.3957587701366 -24.882409349924146 -75.70748087272999
rradius 20.965586165375644
rwrist 11.253193209409229
rhand -17.01302701745587 23.592405843871646
rfingers 7.12502
rthumb 9.22275493557713 -6.189119895016942
75
root 0.04459634594848905 18.05484884181257 33.154546748493956 -3.2998313120585445 0.08178877577728727 -4.821600769787075
lfemur -8.178294604490446 -1.203939853245904 -14.525638192618114
ltibia 64.03094850629685
lfoot 7.042696971176375 -11.44751631269826
ltoes -2.0609169667165093
rfemur -14.192570763704941 5.609910180021378 30.317466030394364
rtibia 29.557653598115163
rfoot -10.33680912523369 -5.648466079284996
rtoes 9.161628210811084
lowerback 9.733986000863464 -0.4211980867709074 2.3888660785701257
upperback 0.6276682857629823 -0.15836509558998113 2.9727497302738675
thorax -4.8376918845320676 -0.09983031016033572 1.6778647263527304
lowerneck -15.885021625863528 -2.7124678992422964 -2.3431735634034734
upperneck 20.978242863940373 -3.4453661808005935 1.1916608127335893
head 9.264748205729719 -1.6769389053345647 0.3821551837590911
lclavicle -2.1126900783240153e-15 7.603337291521966e-16
lhumerus -26.003936414284773 -2.172113563020134 84.84066050855144
lradius 27.76438295934669
lwrist 3.859837492626553
lhand -26.901502168087575 23.404966408944464
lfingers 7.12502
lthumb -0.32496477185878153 53.37902617968203
rclavicle -2.1126900783240153e-15 7.603337291521966e-16
rhumerus -31.270448199037993 -22.94403353586531 -77.19273057489347
rradius 21.511492980225924
rwrist 10.125288987297377
rhand -16.8932653307761 23.502500705404792
rfingers 7.12502
rthumb 9.338330884834605 -6.271702650665636
76
root 0.04552153584827301 18.086135943526887 33.96063897000538 -3.331186499277108 -0.6248434392526527 -5.062182481988845
lfemur -12.393816410318578 0.320256380910787 -13.688925154633623
ltibia 67.31881563851701
lfoot 1.6801515383184098 -7.895380962672783
ltoes -3.6589290619147508
rfemur -10.828951371319057 5.842219022573442 31.529826438141484
rtibia 29.992550267121068
rfoot -11.845091000043071 -5.532883492503278
rtoes 8.885769220736254
lowerback 9.757209755016765 0.16269911369247136 3.2095823259647864
upperback 0.7054330168330445 0.6942042110030338 2.803384177484258
thorax -4.783593150699408 0.30272348914972824 1.1293818010596135
lowerneck -15.773899320791218 -2.76008918997777 -2.2861178862277183
upperneck 20.986788408977286 -3.5330252409641356 1.3780282004043347
head 9.268057660905043 -1.7066188188982567 0.4142118347657635
lclavicle -1.3843938903262428e-15 1.432072029618501e-15
lhumerus -26.886813199267717 -1.3143539429148523 84.87783708526194
lradius 27.214759983636092
lwrist 3.7047122317991743
lhand -27.059197130137907 23.124514978952877
lfingers 7.12502
lthumb -0.4772173142628561 53.10289525790411
rclavicle -1.3843938903262428e-15 1.432072029618501e-15
rhumerus -29.96762055528686 -20.562486058173754 -78.3938582187012
rradius 22.390465541092066
rwrist 9.162173819616632
rhand -16.859240996704166 22.78604120499181
rfingers 7.12502
rthumb 9.371170251344552 -6.9865352512741135
77
root 0.04021598473948573 18.07138040926629 33.12976465722704 -3.328446366512653 -1.657503345207814 -5.524324818679018
lfemur -16.9899004729245 1.3603376201922055 -13.69063332265611
ltibia 66.25177646872868
lfoot -3.130300346395445 -4.9511027717385545
ltoes -5.244598000274879
rfemur -8.922460609302558 5.802260337067347 32.07658330116935
rtibia 29.547753832182348
rfoot -13.809267592017537 -5.6970373588159875
rtoes 8.372939135243632
lowerback 9.771546200365394 0.626750880891875 3.7769729163275736
upperback 0.7111351536543817 1.3698774357647279 2.548828416719595
thorax -4.798163699517711 0.6222926465394025 0.37608527701023786
lowerneck -15.8163779811136 -2.79507177226792 -2.244342274504059
upperneck 20.891606059121123 -3.596344475955914 1.3904249394638701
head 9.24337873199354 -1.7283417675663457 0.39226241314191834
lclavicle -1.886126749507527e-15 9.709019076979397e-16
lhumerus -28.36397939706309 -0.720388287137748 84.7021917918739
lradius 26.552435826338634
lwrist 3.919223842910055
lhand -27.378859277307804 22.526334306225266
lfingers 7.12502
lthumb -0.785929148325041 52.50555584495743
rclavicle -1.886126749507527e-15 9.709019076979397e-16
rhumerus -28.962781545794513 -18.3681640041226 -79.65148016341708
rradius 23.332718980421525
rwrist 7.5853588638725675
rhand -17.083300322581053 21.720107266341174
rfingers 7.12502
rthumb 9.15495286922108 -8.058671507102273
78
root 0.062296384046604425 18.039684986760733 33.71530774269312 -3.140891690538301 -2.50632229189449 -5.898608601867503
lfemur -20.211613683225487 2.031310234151331 -13.333409352253955
ltibia 63.23173551854758
lfoot -5.658803667187945 -1.9107559838924575
ltoes -5.595044298121717
rfemur -6.454731543742176 5.884708934588804 32.96647646232824
rtibia 29.73894926468122
rfoot -15.186075069491809 -5.7006247400275445
rtoes 8.440239308547014
lowerback 9.837913104660375 1.1161615222237193 4.673943761132688
upperback 0.6964378381554011 2.113245847641935 2.3980077909586477
thorax -4.80893715246094 0.9696937265393228 -0.25976820702248127
lowerneck -15.912655683210465 -2.7991676224813618 -2.1628128028583293
upperneck 20.739129305021535 -3.6089445108706664 1.3804201879444435
head 9.208328149196337 -1.7300124093369376 0.3731464371091244
lclavicle -1.5534194421413024e-15 1.2771623754767295e-15
lhumerus -29.592731364304505 0.2676715352545644 84.50088540102955
lradius 26.09185467614204
lwrist 4.426548089167277
lhand -27.60677009482812 22.151797203458116
lfingers 7.12502
lthumb -1.0060694909179915 52.12813788940373
rclavicle -1.5534194421413022e-15 1.2771623754767295e-15
rhumerus -27.819966103156805 -15.84318159393055 -80.54685429550985
rradius 24.604023338045216
rwrist 6.005328669789179
rhand -17.338365680759235 21.33501278937344
rfingers 7.12502
rthumb 8.908806309199775 -8.455847830740428
